<mxfile host="app.diagrams.net" modified="2023-03-21T05:00:55.622Z" agent="5.0 (X11; Ubuntu)" etag="BMytpWLtSZmNctak-EwL" version="21.0.2" type="github">
  <diagram name="Page-1" id="5Q0z6BsGgsHqyTBwASSS">
    <mxGraphModel dx="1360" dy="766" grid="1" gridSize="10" guides="1" tooltips="1" connect="1" arrows="1" fold="1" page="1" pageScale="1" pageWidth="850" pageHeight="1100" math="0" shadow="0">
      <root>
        <mxCell id="0" />
        <mxCell id="1" parent="0" />
        <mxCell id="QcggLEAKvRPgBjX7XcD9-2" value=":Citizen" style="shape=umlLifeline;perimeter=lifelinePerimeter;whiteSpace=wrap;html=1;container=1;dropTarget=0;collapsible=0;recursiveResize=0;outlineConnect=0;portConstraint=eastwest;newEdgeStyle={&quot;edgeStyle&quot;:&quot;elbowEdgeStyle&quot;,&quot;elbow&quot;:&quot;vertical&quot;,&quot;curved&quot;:0,&quot;rounded&quot;:0};" vertex="1" parent="1">
          <mxGeometry x="80" y="90" width="100" height="1010" as="geometry" />
        </mxCell>
        <mxCell id="QcggLEAKvRPgBjX7XcD9-7" value="" style="html=1;points=[];perimeter=orthogonalPerimeter;outlineConnect=0;targetShapes=umlLifeline;portConstraint=eastwest;newEdgeStyle={&quot;edgeStyle&quot;:&quot;elbowEdgeStyle&quot;,&quot;elbow&quot;:&quot;vertical&quot;,&quot;curved&quot;:0,&quot;rounded&quot;:0};" vertex="1" parent="QcggLEAKvRPgBjX7XcD9-2">
          <mxGeometry x="45" y="70" width="10" height="60" as="geometry" />
        </mxCell>
        <mxCell id="QcggLEAKvRPgBjX7XcD9-3" value=":Complaint" style="shape=umlLifeline;perimeter=lifelinePerimeter;whiteSpace=wrap;html=1;container=1;dropTarget=0;collapsible=0;recursiveResize=0;outlineConnect=0;portConstraint=eastwest;newEdgeStyle={&quot;edgeStyle&quot;:&quot;elbowEdgeStyle&quot;,&quot;elbow&quot;:&quot;vertical&quot;,&quot;curved&quot;:0,&quot;rounded&quot;:0};" vertex="1" parent="1">
          <mxGeometry x="250" y="90" width="100" height="1010" as="geometry" />
        </mxCell>
        <mxCell id="QcggLEAKvRPgBjX7XcD9-8" value="" style="html=1;points=[];perimeter=orthogonalPerimeter;outlineConnect=0;targetShapes=umlLifeline;portConstraint=eastwest;newEdgeStyle={&quot;edgeStyle&quot;:&quot;elbowEdgeStyle&quot;,&quot;elbow&quot;:&quot;vertical&quot;,&quot;curved&quot;:0,&quot;rounded&quot;:0};" vertex="1" parent="QcggLEAKvRPgBjX7XcD9-3">
          <mxGeometry x="45" y="80" width="10" height="80" as="geometry" />
        </mxCell>
        <mxCell id="QcggLEAKvRPgBjX7XcD9-11" value="" style="html=1;points=[];perimeter=orthogonalPerimeter;outlineConnect=0;targetShapes=umlLifeline;portConstraint=eastwest;newEdgeStyle={&quot;edgeStyle&quot;:&quot;elbowEdgeStyle&quot;,&quot;elbow&quot;:&quot;vertical&quot;,&quot;curved&quot;:0,&quot;rounded&quot;:0};" vertex="1" parent="QcggLEAKvRPgBjX7XcD9-3">
          <mxGeometry x="45" y="170" width="10" height="50" as="geometry" />
        </mxCell>
        <mxCell id="QcggLEAKvRPgBjX7XcD9-12" value="generateComplaintID" style="html=1;align=left;spacingLeft=2;endArrow=block;rounded=0;edgeStyle=orthogonalEdgeStyle;curved=0;rounded=0;" edge="1" target="QcggLEAKvRPgBjX7XcD9-11" parent="QcggLEAKvRPgBjX7XcD9-3">
          <mxGeometry relative="1" as="geometry">
            <mxPoint x="55" y="140" as="sourcePoint" />
            <Array as="points">
              <mxPoint x="85" y="170" />
            </Array>
          </mxGeometry>
        </mxCell>
        <mxCell id="QcggLEAKvRPgBjX7XcD9-5" value=":Supervisor" style="shape=umlLifeline;perimeter=lifelinePerimeter;whiteSpace=wrap;html=1;container=1;dropTarget=0;collapsible=0;recursiveResize=0;outlineConnect=0;portConstraint=eastwest;newEdgeStyle={&quot;edgeStyle&quot;:&quot;elbowEdgeStyle&quot;,&quot;elbow&quot;:&quot;vertical&quot;,&quot;curved&quot;:0,&quot;rounded&quot;:0};" vertex="1" parent="1">
          <mxGeometry x="560" y="90" width="100" height="1010" as="geometry" />
        </mxCell>
        <mxCell id="QcggLEAKvRPgBjX7XcD9-19" value="" style="html=1;points=[];perimeter=orthogonalPerimeter;outlineConnect=0;targetShapes=umlLifeline;portConstraint=eastwest;newEdgeStyle={&quot;edgeStyle&quot;:&quot;elbowEdgeStyle&quot;,&quot;elbow&quot;:&quot;vertical&quot;,&quot;curved&quot;:0,&quot;rounded&quot;:0};" vertex="1" parent="QcggLEAKvRPgBjX7XcD9-5">
          <mxGeometry x="45" y="70" width="10" height="880" as="geometry" />
        </mxCell>
        <mxCell id="QcggLEAKvRPgBjX7XcD9-6" value=":Project" style="shape=umlLifeline;perimeter=lifelinePerimeter;whiteSpace=wrap;html=1;container=1;dropTarget=0;collapsible=0;recursiveResize=0;outlineConnect=0;portConstraint=eastwest;newEdgeStyle={&quot;edgeStyle&quot;:&quot;elbowEdgeStyle&quot;,&quot;elbow&quot;:&quot;vertical&quot;,&quot;curved&quot;:0,&quot;rounded&quot;:0};" vertex="1" parent="1">
          <mxGeometry x="720" y="90" width="100" height="1010" as="geometry" />
        </mxCell>
        <mxCell id="QcggLEAKvRPgBjX7XcD9-25" value="genProjectID" style="html=1;align=left;spacingLeft=2;endArrow=block;rounded=0;edgeStyle=orthogonalEdgeStyle;curved=0;rounded=0;startArrow=none;" edge="1" target="QcggLEAKvRPgBjX7XcD9-26" parent="QcggLEAKvRPgBjX7XcD9-6" source="QcggLEAKvRPgBjX7XcD9-21">
          <mxGeometry relative="1" as="geometry">
            <mxPoint x="50" y="440" as="sourcePoint" />
            <Array as="points">
              <mxPoint x="110" y="450" />
              <mxPoint x="110" y="490" />
              <mxPoint x="50" y="490" />
            </Array>
            <mxPoint x="50" y="530" as="targetPoint" />
          </mxGeometry>
        </mxCell>
        <mxCell id="QcggLEAKvRPgBjX7XcD9-26" value="" style="html=1;points=[];perimeter=orthogonalPerimeter;outlineConnect=0;targetShapes=umlLifeline;portConstraint=eastwest;newEdgeStyle={&quot;edgeStyle&quot;:&quot;elbowEdgeStyle&quot;,&quot;elbow&quot;:&quot;vertical&quot;,&quot;curved&quot;:0,&quot;rounded&quot;:0};" vertex="1" parent="QcggLEAKvRPgBjX7XcD9-6">
          <mxGeometry x="45" y="530" width="10" height="360" as="geometry" />
        </mxCell>
        <mxCell id="QcggLEAKvRPgBjX7XcD9-21" value="" style="html=1;points=[];perimeter=orthogonalPerimeter;outlineConnect=0;targetShapes=umlLifeline;portConstraint=eastwest;newEdgeStyle={&quot;edgeStyle&quot;:&quot;elbowEdgeStyle&quot;,&quot;elbow&quot;:&quot;vertical&quot;,&quot;curved&quot;:0,&quot;rounded&quot;:0};" vertex="1" parent="QcggLEAKvRPgBjX7XcD9-6">
          <mxGeometry x="45" y="410" width="10" height="40" as="geometry" />
        </mxCell>
        <mxCell id="QcggLEAKvRPgBjX7XcD9-9" value="addComplaint" style="html=1;verticalAlign=bottom;endArrow=block;edgeStyle=elbowEdgeStyle;elbow=vertical;curved=0;rounded=0;" edge="1" target="QcggLEAKvRPgBjX7XcD9-8" parent="1" source="QcggLEAKvRPgBjX7XcD9-7">
          <mxGeometry relative="1" as="geometry">
            <mxPoint x="205" y="170" as="sourcePoint" />
            <Array as="points">
              <mxPoint x="210" y="170" />
            </Array>
          </mxGeometry>
        </mxCell>
        <mxCell id="QcggLEAKvRPgBjX7XcD9-28" value=":Scheduler" style="shape=umlLifeline;perimeter=lifelinePerimeter;whiteSpace=wrap;html=1;container=1;dropTarget=0;collapsible=0;recursiveResize=0;outlineConnect=0;portConstraint=eastwest;newEdgeStyle={&quot;edgeStyle&quot;:&quot;elbowEdgeStyle&quot;,&quot;elbow&quot;:&quot;vertical&quot;,&quot;curved&quot;:0,&quot;rounded&quot;:0};" vertex="1" parent="1">
          <mxGeometry x="870" y="90" width="100" height="1010" as="geometry" />
        </mxCell>
        <mxCell id="QcggLEAKvRPgBjX7XcD9-33" value="" style="html=1;points=[];perimeter=orthogonalPerimeter;outlineConnect=0;targetShapes=umlLifeline;portConstraint=eastwest;newEdgeStyle={&quot;edgeStyle&quot;:&quot;elbowEdgeStyle&quot;,&quot;elbow&quot;:&quot;vertical&quot;,&quot;curved&quot;:0,&quot;rounded&quot;:0};" vertex="1" parent="QcggLEAKvRPgBjX7XcD9-28">
          <mxGeometry x="45" y="810" width="10" height="50" as="geometry" />
        </mxCell>
        <mxCell id="QcggLEAKvRPgBjX7XcD9-31" value="" style="html=1;points=[];perimeter=orthogonalPerimeter;outlineConnect=0;targetShapes=umlLifeline;portConstraint=eastwest;newEdgeStyle={&quot;edgeStyle&quot;:&quot;elbowEdgeStyle&quot;,&quot;elbow&quot;:&quot;vertical&quot;,&quot;curved&quot;:0,&quot;rounded&quot;:0};" vertex="1" parent="QcggLEAKvRPgBjX7XcD9-28">
          <mxGeometry x="45" y="660" width="10" height="100" as="geometry" />
        </mxCell>
        <mxCell id="QcggLEAKvRPgBjX7XcD9-46" value="" style="html=1;verticalAlign=bottom;endArrow=none;dashed=1;endSize=8;edgeStyle=elbowEdgeStyle;elbow=vertical;curved=0;rounded=0;startArrow=none;" edge="1" parent="QcggLEAKvRPgBjX7XcD9-28" source="QcggLEAKvRPgBjX7XcD9-31" target="QcggLEAKvRPgBjX7XcD9-33">
          <mxGeometry relative="1" as="geometry">
            <mxPoint x="50" y="540" as="sourcePoint" />
            <mxPoint x="-110" y="540" as="targetPoint" />
          </mxGeometry>
        </mxCell>
        <mxCell id="QcggLEAKvRPgBjX7XcD9-65" value="optimalScheduler" style="html=1;align=left;spacingLeft=2;endArrow=block;rounded=0;edgeStyle=orthogonalEdgeStyle;curved=0;rounded=0;" edge="1" parent="QcggLEAKvRPgBjX7XcD9-28" source="QcggLEAKvRPgBjX7XcD9-31" target="QcggLEAKvRPgBjX7XcD9-28">
          <mxGeometry relative="1" as="geometry">
            <mxPoint x="-700" y="900" as="sourcePoint" />
            <Array as="points">
              <mxPoint x="110" y="760" />
              <mxPoint x="110" y="810" />
            </Array>
            <mxPoint x="-695" y="930" as="targetPoint" />
          </mxGeometry>
        </mxCell>
        <mxCell id="QcggLEAKvRPgBjX7XcD9-35" value="updateSchedule" style="html=1;verticalAlign=bottom;endArrow=open;dashed=1;endSize=8;edgeStyle=elbowEdgeStyle;elbow=vertical;curved=0;rounded=0;startArrow=none;" edge="1" parent="1" source="QcggLEAKvRPgBjX7XcD9-33" target="QcggLEAKvRPgBjX7XcD9-6">
          <mxGeometry relative="1" as="geometry">
            <mxPoint x="920" y="630" as="sourcePoint" />
            <mxPoint x="840" y="630" as="targetPoint" />
          </mxGeometry>
        </mxCell>
        <mxCell id="QcggLEAKvRPgBjX7XcD9-37" value="findSchedule" style="html=1;verticalAlign=bottom;endArrow=block;edgeStyle=elbowEdgeStyle;elbow=vertical;curved=0;rounded=0;" edge="1" parent="1" source="QcggLEAKvRPgBjX7XcD9-26" target="QcggLEAKvRPgBjX7XcD9-29">
          <mxGeometry x="-0.0714" y="10" width="80" relative="1" as="geometry">
            <mxPoint x="780" y="490" as="sourcePoint" />
            <mxPoint x="910" y="650" as="targetPoint" />
            <Array as="points">
              <mxPoint x="850" y="670" />
              <mxPoint x="840" y="640" />
              <mxPoint x="830" y="630" />
              <mxPoint x="840" y="620" />
              <mxPoint x="850" y="500" />
              <mxPoint x="830" y="470" />
            </Array>
            <mxPoint as="offset" />
          </mxGeometry>
        </mxCell>
        <mxCell id="QcggLEAKvRPgBjX7XcD9-38" value="addProjAssess" style="html=1;verticalAlign=bottom;endArrow=block;edgeStyle=elbowEdgeStyle;elbow=vertical;curved=0;rounded=0;" edge="1" parent="1" source="QcggLEAKvRPgBjX7XcD9-5" target="QcggLEAKvRPgBjX7XcD9-6">
          <mxGeometry width="80" relative="1" as="geometry">
            <mxPoint x="630" y="360" as="sourcePoint" />
            <mxPoint x="710" y="360" as="targetPoint" />
            <Array as="points">
              <mxPoint x="700" y="500" />
              <mxPoint x="680" y="310" />
            </Array>
          </mxGeometry>
        </mxCell>
        <mxCell id="QcggLEAKvRPgBjX7XcD9-42" value="updPendingProject" style="html=1;verticalAlign=bottom;endArrow=block;edgeStyle=elbowEdgeStyle;elbow=vertical;curved=0;rounded=0;" edge="1" target="QcggLEAKvRPgBjX7XcD9-54" parent="1" source="QcggLEAKvRPgBjX7XcD9-26">
          <mxGeometry relative="1" as="geometry">
            <mxPoint x="1015" y="670" as="sourcePoint" />
            <mxPoint x="1205" y="960" as="targetPoint" />
            <Array as="points">
              <mxPoint x="620" y="950" />
              <mxPoint x="960" y="880" />
              <mxPoint x="940" y="840" />
              <mxPoint x="910" y="830" />
              <mxPoint x="930" y="770" />
              <mxPoint x="920" y="710" />
              <mxPoint x="925" y="670" />
            </Array>
          </mxGeometry>
        </mxCell>
        <mxCell id="QcggLEAKvRPgBjX7XcD9-48" value="" style="html=1;verticalAlign=bottom;endArrow=none;dashed=1;endSize=8;edgeStyle=elbowEdgeStyle;elbow=vertical;curved=0;rounded=0;startArrow=none;" edge="1" parent="1" source="QcggLEAKvRPgBjX7XcD9-29" target="QcggLEAKvRPgBjX7XcD9-31">
          <mxGeometry relative="1" as="geometry">
            <mxPoint x="920" y="670" as="sourcePoint" />
            <mxPoint x="920" y="760" as="targetPoint" />
          </mxGeometry>
        </mxCell>
        <mxCell id="QcggLEAKvRPgBjX7XcD9-50" value="getComplaintList" style="html=1;verticalAlign=bottom;endArrow=block;edgeStyle=elbowEdgeStyle;elbow=vertical;curved=0;rounded=0;" edge="1" target="QcggLEAKvRPgBjX7XcD9-55" parent="1" source="QcggLEAKvRPgBjX7XcD9-19">
          <mxGeometry relative="1" as="geometry">
            <mxPoint x="425" y="435" as="sourcePoint" />
            <Array as="points">
              <mxPoint x="500" y="470" />
              <mxPoint x="400" y="430" />
            </Array>
          </mxGeometry>
        </mxCell>
        <mxCell id="QcggLEAKvRPgBjX7XcD9-51" value="complaintList" style="html=1;verticalAlign=bottom;endArrow=open;dashed=1;endSize=8;edgeStyle=elbowEdgeStyle;elbow=vertical;curved=0;rounded=0;" edge="1" source="QcggLEAKvRPgBjX7XcD9-55" parent="1" target="QcggLEAKvRPgBjX7XcD9-5">
          <mxGeometry relative="1" as="geometry">
            <mxPoint x="425" y="505" as="targetPoint" />
            <Array as="points">
              <mxPoint x="480" y="500" />
              <mxPoint x="330" y="460" />
              <mxPoint x="390" y="500" />
            </Array>
          </mxGeometry>
        </mxCell>
        <mxCell id="QcggLEAKvRPgBjX7XcD9-53" value=":Resource" style="shape=umlLifeline;perimeter=lifelinePerimeter;whiteSpace=wrap;html=1;container=1;dropTarget=0;collapsible=0;recursiveResize=0;outlineConnect=0;portConstraint=eastwest;newEdgeStyle={&quot;edgeStyle&quot;:&quot;elbowEdgeStyle&quot;,&quot;elbow&quot;:&quot;vertical&quot;,&quot;curved&quot;:0,&quot;rounded&quot;:0};" vertex="1" parent="1">
          <mxGeometry x="1020" y="90" width="100" height="1010" as="geometry" />
        </mxCell>
        <mxCell id="QcggLEAKvRPgBjX7XcD9-60" value="" style="html=1;points=[];perimeter=orthogonalPerimeter;outlineConnect=0;targetShapes=umlLifeline;portConstraint=eastwest;newEdgeStyle={&quot;edgeStyle&quot;:&quot;elbowEdgeStyle&quot;,&quot;elbow&quot;:&quot;vertical&quot;,&quot;curved&quot;:0,&quot;rounded&quot;:0};" vertex="1" parent="QcggLEAKvRPgBjX7XcD9-53">
          <mxGeometry x="45" y="70" width="10" height="900" as="geometry" />
        </mxCell>
        <mxCell id="QcggLEAKvRPgBjX7XcD9-54" value=":Division" style="shape=umlLifeline;perimeter=lifelinePerimeter;whiteSpace=wrap;html=1;container=1;dropTarget=0;collapsible=0;recursiveResize=0;outlineConnect=0;portConstraint=eastwest;newEdgeStyle={&quot;edgeStyle&quot;:&quot;elbowEdgeStyle&quot;,&quot;elbow&quot;:&quot;vertical&quot;,&quot;curved&quot;:0,&quot;rounded&quot;:0};" vertex="1" parent="1">
          <mxGeometry x="410" y="90" width="100" height="1010" as="geometry" />
        </mxCell>
        <mxCell id="QcggLEAKvRPgBjX7XcD9-55" value="" style="html=1;points=[];perimeter=orthogonalPerimeter;outlineConnect=0;targetShapes=umlLifeline;portConstraint=eastwest;newEdgeStyle={&quot;edgeStyle&quot;:&quot;elbowEdgeStyle&quot;,&quot;elbow&quot;:&quot;vertical&quot;,&quot;curved&quot;:0,&quot;rounded&quot;:0};" vertex="1" parent="QcggLEAKvRPgBjX7XcD9-54">
          <mxGeometry x="45" y="90" width="10" height="860" as="geometry" />
        </mxCell>
        <mxCell id="QcggLEAKvRPgBjX7XcD9-56" value="updateAreaWiseList" style="html=1;verticalAlign=bottom;endArrow=block;edgeStyle=elbowEdgeStyle;elbow=vertical;curved=0;rounded=0;" edge="1" target="QcggLEAKvRPgBjX7XcD9-55" parent="1" source="QcggLEAKvRPgBjX7XcD9-11">
          <mxGeometry relative="1" as="geometry">
            <mxPoint x="385" y="305" as="sourcePoint" />
            <Array as="points">
              <mxPoint x="400" y="310" />
            </Array>
          </mxGeometry>
        </mxCell>
        <mxCell id="QcggLEAKvRPgBjX7XcD9-58" value="" style="html=1;verticalAlign=bottom;endArrow=none;dashed=1;endSize=8;edgeStyle=elbowEdgeStyle;elbow=vertical;curved=0;rounded=0;" edge="1" parent="1" target="QcggLEAKvRPgBjX7XcD9-29">
          <mxGeometry relative="1" as="geometry">
            <mxPoint x="920" y="670" as="sourcePoint" />
            <mxPoint x="920" y="720" as="targetPoint" />
          </mxGeometry>
        </mxCell>
        <mxCell id="QcggLEAKvRPgBjX7XcD9-29" value="" style="html=1;points=[];perimeter=orthogonalPerimeter;outlineConnect=0;targetShapes=umlLifeline;portConstraint=eastwest;newEdgeStyle={&quot;edgeStyle&quot;:&quot;elbowEdgeStyle&quot;,&quot;elbow&quot;:&quot;vertical&quot;,&quot;curved&quot;:0,&quot;rounded&quot;:0};" vertex="1" parent="1">
          <mxGeometry x="915" y="670" width="10" height="40" as="geometry" />
        </mxCell>
        <mxCell id="QcggLEAKvRPgBjX7XcD9-32" value="updPendingProjs" style="html=1;align=left;spacingLeft=2;endArrow=block;rounded=0;edgeStyle=orthogonalEdgeStyle;curved=0;rounded=0;startArrow=none;" edge="1" target="QcggLEAKvRPgBjX7XcD9-31" parent="1">
          <mxGeometry relative="1" as="geometry">
            <mxPoint x="920" y="710" as="sourcePoint" />
            <Array as="points">
              <mxPoint x="920" y="710" />
              <mxPoint x="950" y="710" />
              <mxPoint x="950" y="750" />
            </Array>
          </mxGeometry>
        </mxCell>
        <mxCell id="QcggLEAKvRPgBjX7XcD9-61" value="fetchResourceInfo" style="html=1;verticalAlign=bottom;endArrow=block;edgeStyle=elbowEdgeStyle;elbow=vertical;curved=0;rounded=0;" edge="1" target="QcggLEAKvRPgBjX7XcD9-60" parent="1" source="QcggLEAKvRPgBjX7XcD9-31">
          <mxGeometry relative="1" as="geometry">
            <mxPoint x="995" y="770" as="sourcePoint" />
            <Array as="points">
              <mxPoint x="980" y="770" />
            </Array>
          </mxGeometry>
        </mxCell>
        <mxCell id="QcggLEAKvRPgBjX7XcD9-62" value="resourceInfo" style="html=1;verticalAlign=bottom;endArrow=open;dashed=1;endSize=8;edgeStyle=elbowEdgeStyle;elbow=vertical;curved=0;rounded=0;" edge="1" source="QcggLEAKvRPgBjX7XcD9-60" parent="1" target="QcggLEAKvRPgBjX7XcD9-28">
          <mxGeometry relative="1" as="geometry">
            <mxPoint x="995" y="845" as="targetPoint" />
            <Array as="points">
              <mxPoint x="1020" y="830" />
            </Array>
          </mxGeometry>
        </mxCell>
      </root>
    </mxGraphModel>
  </diagram>
</mxfile>
